# xmcd CD database file
#
# Track frame offsets:
#	150
#	12817
#	25645
#	35837
#	46154
#	58246
#	66254
#	76461
#	86925
#	99477
#
# Disc length: 1463 seconds
#
# Revision: 0
# Processed by: cddbd v1.5.1PL0 Copyright (c) Steve Scherf et al.
# Submitted via: CDex 1.51
#
DISCID=7e05b50a
DTITLE=Johnny Cash - Vintage Vaults Volume 2
DYEAR=2004
DGENRE=Country
TTITLE0=I Walk The Line
TTITLE1=Give My Love To Rose
TTITLE2=Ballad Of A Teenage Queen
TTITLE3=Rock Island Line
TTITLE4=So Doggone Lonesome
TTITLE5=Come In Stranger
TTITLE6=Born To Lose
TTITLE7=Straight A's In Love
TTITLE8=Goodnight Irene
TTITLE9=The Ways Of A Woman In Love
EXTD=YEAR: 2004
EXTT0=
EXTT1=
EXTT2=
EXTT3=
EXTT4=
EXTT5=
EXTT6=
EXTT7=
EXTT8=
EXTT9=
PLAYORDER=
